<svg width="39" height="40" viewBox="0 0 39 40" fill="none" xmlns="http://www.w3.org/2000/svg">
<path d="M20 12C15.5806 12 12 15.5806 12 20C12 24.4194 15.5806 28 20 28C24.4194 28 28 24.4194 28 20C28 15.5806 24.4194 12 20 12ZM23.9226 22.1C24.0742 22.2516 24.0742 22.4968 23.9226 22.6484L22.6452 23.9226C22.4935 24.0742 22.2484 24.0742 22.0968 23.9226L20 21.8065L17.9 23.9226C17.7484 24.0742 17.5032 24.0742 17.3516 23.9226L16.0774 22.6452C15.9258 22.4935 15.9258 22.2484 16.0774 22.0968L18.1935 20L16.0774 17.9C15.9258 17.7484 15.9258 17.5032 16.0774 17.3516L17.3548 16.0742C17.5065 15.9226 17.7516 15.9226 17.9032 16.0742L20 18.1935L22.1 16.0774C22.2516 15.9258 22.4968 15.9258 22.6484 16.0774L23.9258 17.3548C24.0774 17.5065 24.0774 17.7516 23.9258 17.9032L21.8065 20L23.9226 22.1Z" fill="black" fill-opacity="0.1"/>
</svg>
