<svg width="108" height="33" viewBox="0 0 108 33" fill="none" xmlns="http://www.w3.org/2000/svg">
<path d="M48.6411 8.17067C53.3832 8.08281 57.0682 11.7582 56.9822 16.3393C57.0682 20.9204 53.3832 24.5957 48.6411 24.5079C43.8704 24.5079 40.3288 20.9769 40.3288 16.3393C40.3288 11.7017 43.8704 8.17067 48.6411 8.17067ZM48.6411 10.8252C45.4989 10.8252 43.2703 13.0425 43.2703 16.3393C43.2703 19.636 45.4989 21.8533 48.6411 21.8533C51.7834 21.8533 54.0407 19.636 54.0407 16.3393C54.0407 13.0425 51.8121 10.8252 48.6411 10.8252Z" fill="#630A37"/>
<path d="M59.0306 8.60785H61.9168V10.3587H61.9741C63.1458 8.98647 65.059 8.17065 67.345 8.17065C71.7737 8.17065 75.172 11.6996 75.172 16.3393C75.258 20.9204 71.6876 24.5957 67.259 24.5078C65.0877 24.5078 63.0885 23.6607 62.0315 22.4076H61.9741V30.6348H59.0306V8.60785ZM67.0583 10.8252C64.2008 10.8252 61.9741 12.8375 61.9741 15.2892V17.3893C61.9741 19.841 64.1454 21.8533 66.9743 21.8533C70.0592 21.8533 72.2305 19.636 72.2305 16.3393C72.2305 13.0425 70.1452 10.8252 67.0603 10.8252H67.0583Z" fill="#630A37"/>
<path d="M84.5659 8.17065C89.1932 8.17065 92.5649 11.6724 92.5649 16.3393V17.3601H79.4244C79.4531 18.7323 79.9672 19.8389 80.9668 20.6861C81.9665 21.5333 83.1955 21.9705 84.6806 21.9705C86.8232 21.9705 88.5664 20.9789 89.9081 19.0252L92.022 20.7175C90.3362 23.2548 87.8802 24.5099 84.6806 24.5099C79.7091 24.5099 76.4809 21.2718 76.4809 16.3999C76.4809 11.528 79.8525 8.17275 84.5659 8.17275V8.17065ZM89.6234 15.0549C89.4513 12.6032 87.2226 10.708 84.5946 10.708C81.7657 10.708 79.6518 12.6053 79.4818 15.0549H89.6234Z" fill="#630A37"/>
<path d="M100.58 14.9963C103.665 14.5005 104.693 13.9462 104.693 12.8961C104.693 11.5824 103.323 10.7373 101.236 10.7373C98.835 10.7373 97.1512 12.0217 96.721 14.1219L93.9209 13.509C94.2056 11.9046 95.0065 10.5909 96.3216 9.62866C97.6653 8.66642 99.2918 8.17065 101.207 8.17065C105.234 8.17065 107.807 10.2416 107.807 13.5383V24.0707H105.035V22.2027H104.978C103.978 23.6314 101.893 24.5078 99.5212 24.5078C96.0635 24.5078 93.9209 22.7277 93.9209 19.8975C93.9209 17.0672 95.7788 15.7263 100.578 14.9963H100.58ZM104.923 15.7263H104.865C104.495 16.4271 103.495 16.835 101.094 17.2722C98.0095 17.8265 96.8091 18.5273 96.8091 19.8096C96.8091 21.2383 97.8087 21.8805 100.066 21.8805C102.637 21.8805 104.923 20.3346 104.923 18.5545V15.7243V15.7263Z" fill="#630A37"/>
<path d="M13.3268 28.7374C8.58687 27.7271 4.84855 23.9116 3.86122 19.0711C2.30035 11.4317 7.47254 4.64584 14.4391 3.75472C15.3322 3.63967 15.998 2.86151 15.998 1.94319C15.998 0.838708 15.0455 -0.00848345 13.9721 0.129577C6.02023 1.15667 -0.11266 8.14338 1.58686e-06 16.5714C0.120857 25.3717 7.15299 32.5529 15.7706 32.6764C24.0236 32.7935 30.8652 26.5306 31.871 18.408C32.0061 17.3119 31.1786 16.3392 30.095 16.3392C29.1958 16.3392 28.4317 17.0211 28.3211 17.931C27.4485 25.0454 20.8035 30.3293 13.3248 28.7353L13.3268 28.7374Z" fill="#630A37"/>
<path d="M29.9106 14.2663C31.0639 14.2663 31.998 13.3124 31.998 12.1347V3.87825C32 1.73622 30.2998 0 28.2023 0H20.1173C18.964 0 18.03 0.953874 18.03 2.13157C18.03 3.07708 18.6404 3.90754 19.5273 4.17529C23.5483 5.39065 26.7193 8.6288 27.9094 12.7351C28.1716 13.6408 28.9848 14.2642 29.9106 14.2642V14.2663Z" fill="#630A37"/>
</svg>
