<svg width="30" height="30" viewBox="0 0 30 30" fill="none" xmlns="http://www.w3.org/2000/svg">
<rect x="0.5" y="0.5" width="29" height="29" rx="3.5" fill="white" stroke="#C7C9CC"/>
<path d="M9.85714 20.4286C9.85714 20.7696 9.9926 21.0966 10.2337 21.3377C10.4748 21.5788 10.8019 21.7143 11.1429 21.7143H18.8571C19.1981 21.7143 19.5252 21.5788 19.7663 21.3377C20.0074 21.0966 20.1429 20.7696 20.1429 20.4286V11.4286H9.85714V20.4286ZM17.1429 13.5714C17.1429 13.4578 17.188 13.3488 17.2684 13.2684C17.3488 13.188 17.4578 13.1429 17.5714 13.1429C17.6851 13.1429 17.7941 13.188 17.8745 13.2684C17.9548 13.3488 18 13.4578 18 13.5714V19.5714C18 19.6851 17.9548 19.7941 17.8745 19.8745C17.7941 19.9549 17.6851 20 17.5714 20C17.4578 20 17.3488 19.9549 17.2684 19.8745C17.188 19.7941 17.1429 19.6851 17.1429 19.5714V13.5714ZM14.5714 13.5714C14.5714 13.4578 14.6166 13.3488 14.697 13.2684C14.7773 13.188 14.8863 13.1429 15 13.1429C15.1137 13.1429 15.2227 13.188 15.303 13.2684C15.3834 13.3488 15.4286 13.4578 15.4286 13.5714V19.5714C15.4286 19.6851 15.3834 19.7941 15.303 19.8745C15.2227 19.9549 15.1137 20 15 20C14.8863 20 14.7773 19.9549 14.697 19.8745C14.6166 19.7941 14.5714 19.6851 14.5714 19.5714V13.5714ZM12 13.5714C12 13.4578 12.0452 13.3488 12.1255 13.2684C12.2059 13.188 12.3149 13.1429 12.4286 13.1429C12.5422 13.1429 12.6512 13.188 12.7316 13.2684C12.812 13.3488 12.8571 13.4578 12.8571 13.5714V19.5714C12.8571 19.6851 12.812 19.7941 12.7316 19.8745C12.6512 19.9549 12.5422 20 12.4286 20C12.3149 20 12.2059 19.9549 12.1255 19.8745C12.0452 19.7941 12 19.6851 12 19.5714V13.5714ZM20.5714 8.85715H17.3571L17.1054 8.35625C17.052 8.24917 16.9699 8.15909 16.8681 8.09615C16.7664 8.03322 16.6491 7.99992 16.5295 8H13.4679C13.3485 7.99955 13.2314 8.03272 13.13 8.09573C13.0287 8.15873 12.9471 8.24902 12.8946 8.35625L12.6429 8.85715H9.42857C9.31491 8.85715 9.2059 8.9023 9.12553 8.98267C9.04515 9.06305 9 9.17205 9 9.28572V10.1429C9 10.2565 9.04515 10.3655 9.12553 10.4459C9.2059 10.5263 9.31491 10.5714 9.42857 10.5714H20.5714C20.6851 10.5714 20.7941 10.5263 20.8745 10.4459C20.9548 10.3655 21 10.2565 21 10.1429V9.28572C21 9.17205 20.9548 9.06305 20.8745 8.98267C20.7941 8.9023 20.6851 8.85715 20.5714 8.85715Z" fill="#630A37"/>
</svg>
